# xmcd CD database file
#
# Track frame offsets:
#	150
#	19019
#	34696
#	58785
#	79747
#	97098
#	117908
#	133608
#	151724
#	167032
#
# Disc length: 2492 seconds
#
# Revision: 5
# Processed by: cddbd v1.5.2PL0 Copyright (c) Steve Scherf et al.
# Submitted via: CDex 1.51
#
DISCID=7709ba0a
DTITLE=Chet Baker - Vol.10 - My Funny Valentine
DYEAR=1900
DGENRE=Jazz
TTITLE0=Chet
TTITLE1=A Foggy Day
TTITLE2=Worryin' The Live Out Of Me
TTITLE3=Dinah
TTITLE4=Not Too Slow
TTITLE5=Phil's Blues
TTITLE6=Darn That Dream
TTITLE7=Tenderly
TTITLE8=V-Line
TTITLE9=Mythe
EXTD=
EXTT0=
EXTT1=
EXTT2=
EXTT3=
EXTT4=
EXTT5=
EXTT6=
EXTT7=
EXTT8=
EXTT9=
PLAYORDER=
